<svg xmlns="http://www.w3.org/2000/svg" xmlns:xlink="http://www.w3.org/1999/xlink" width="563" height="675" viewBox="0 0 563 675"><defs><clipPath id="a"><path d="M0-22.108H60.855V-65.96H0Z" transform="translate(0 65.96)" fill="#7f6677"/></clipPath><clipPath id="b"><path d="M0-31.394H75.219V-85.526H0Z" transform="translate(0 85.526)" fill="none"/></clipPath><clipPath id="c"><path d="M0-32.831H66.9V-78.422H0Z" transform="translate(0 78.422)" fill="#7f6677"/></clipPath><clipPath id="d"><path d="M0-21.672H91.071V-69.187H0Z" transform="translate(0 69.187)" fill="#7f6677"/></clipPath></defs><g transform="translate(-551 -3938)"><g transform="translate(551 3938)" fill="#fff" stroke="#7f6677" stroke-width="7"><rect width="563" height="675" rx="15" stroke="none"/><rect x="3.5" y="3.5" width="556" height="668" rx="11.5" fill="none"/></g><g transform="translate(0 -6)"><text transform="translate(670 3968)" fill="#7f6677" font-size="25" font-family="Montserrat-BlackItalic, Montserrat" font-weight="800" font-style="italic"><tspan x="0" y="24">Projets </tspan><tspan x="0" y="54">valorisés par an</tspan></text><text transform="translate(591 4015)" fill="#7f6677" font-size="80" font-family="Montserrat-ExtraBoldItalic, Montserrat" font-weight="800" font-style="italic" letter-spacing="-0.02em"><tspan x="0" y="77">1000</tspan></text><g transform="translate(596 4048.879)"><g transform="translate(0 -65.96)" clip-path="url(#a)"><g transform="translate(0 0)"><path d="M-30.6-7.868-42.29-23.182a.748.748,0,0,0-.6-.293h-28.2c-.021,0-.038.012-.059.013a.732.732,0,0,0-.207.049.751.751,0,0,0-.108.049c-.019.011-.041.013-.059.026a.711.711,0,0,0-.1.11c-.019.021-.047.031-.065.055L-83.1-7.783a.744.744,0,0,0-.147.441l-.08,15.512-7.762,7.763a.747.747,0,0,0,0,1.058l3.167,3.167a.75.75,0,0,0,.529.219.75.75,0,0,0,.529-.219l3.9-3.9a.744.744,0,0,0,.346.1H-31.2a.748.748,0,0,0,.748-.748V-7.414a.756.756,0,0,0-.154-.454M-43.255-21.979-32.017-7.256H-59.24l-10.4-14.723Zm-40.1,36.516-4.034,4.034-2.11-2.109,6.165-6.166,1.5-1.5,1.647-1.648,2.11,2.11-3.779,3.779Zm3.29-12.21A6.769,6.769,0,0,1-78.07-2.49,6.788,6.788,0,0,1-73.254-4.48,6.8,6.8,0,0,1-68.438-2.49a6.772,6.772,0,0,1,1.994,4.817,6.766,6.766,0,0,1-1.994,4.815,6.764,6.764,0,0,1-4.816,2,6.764,6.764,0,0,1-4.815-2,6.763,6.763,0,0,1-1.994-4.815m3.452,7.582a8.256,8.256,0,0,0,3.358.723A8.253,8.253,0,0,0-67.381,8.2a8.252,8.252,0,0,0,2.433-5.872,8.253,8.253,0,0,0-2.433-5.874,8.317,8.317,0,0,0-11.747,0A8.25,8.25,0,0,0-81.56,2.327a8.263,8.263,0,0,0,.723,3.357l-.981.982.07-13.756L-71.1-21.453-60.375-6.273l-.112,21.128h-21.07Zm44.668,4.946H-58.992l.11-20.615h26.938Z" transform="translate(91.304 23.475)" fill="#7f6677"/></g></g></g></g><g transform="translate(0 -6)"><text transform="translate(693 4151)" fill="#7f6677" font-size="80" font-family="Montserrat-ExtraBoldItalic, Montserrat" font-weight="800" font-style="italic" letter-spacing="-0.02em"><tspan x="0" y="77">Leader </tspan></text><text transform="translate(852 4227)" fill="#7f6677" font-size="25" font-family="Montserrat-ExtraBoldItalic, Montserrat" font-weight="800" font-style="italic"><tspan x="0" y="24">en France</tspan></text><g transform="translate(607.623 4258.445)"><g transform="translate(0 -85.526)" clip-path="url(#b)"><g transform="translate(25.649 0.801)"><path d="M0-10.772H24.914V-21.925l-5.663-7.42H5.587L.056-21.888Zm11.033-.3.055-10.362H24.8M5.562-29.262l5.525,7.824" transform="translate(0 29.346)" fill="none" stroke="#7f6677" stroke-linecap="round" stroke-linejoin="round" stroke-width="1.5"/></g><path d="M26.147-21H1.265V-45.887H26.147Zm24.864,0H26.129V-55.04H51.012Zm0-34.036.02,16.809H74.883V-21H51.031Z" transform="translate(-0.464 74.336)" fill="none" stroke="#7f6677" stroke-linejoin="round" stroke-width="1.5"/></g></g></g><g transform="translate(0 -6)"><text transform="translate(596 4489)" fill="#7f6677" font-size="80" font-family="Montserrat-ExtraBoldItalic, Montserrat" font-weight="800" font-style="italic" letter-spacing="-0.02em"><tspan x="0" y="77">18</tspan></text><text transform="translate(596 4567)" fill="#7f6677" font-size="25" font-family="Montserrat-ExtraBoldItalic, Montserrat" font-weight="800" font-style="italic"><tspan x="0" y="24">Collaborateurs</tspan></text><g transform="translate(695 4597.674)"><g transform="translate(0 -78.422)" clip-path="url(#c)"><g transform="translate(0 0)"><path d="M-47.688-16.021h-5.218a6.643,6.643,0,0,0,3.489-5.822,6.671,6.671,0,0,0-6.664-6.664,6.671,6.671,0,0,0-6.664,6.664,6.661,6.661,0,0,0,.131,1.3,6.624,6.624,0,0,0-3.533-1.273v-1.95a.68.68,0,0,0-.138-.41L-76.837-38a.675.675,0,0,0-.537-.265h-25.455a.528.528,0,0,0-.052.013.678.678,0,0,0-.187.044.645.645,0,0,0-.1.044.531.531,0,0,0-.052.023.609.609,0,0,0-.094.1c-.018.019-.044.028-.059.049l-10.3,13.894a.679.679,0,0,0-.133.4l-.106,20.71a.676.676,0,0,0,.2.48.674.674,0,0,0,.479.2h27.571V-.007a.674.674,0,0,0,.675.675h9.4V6.646a.675.675,0,0,0,.675.675h16.77a.675.675,0,0,0,.676-.675V.668h9.78a.674.674,0,0,0,.675-.675v-15.34a.674.674,0,0,0-.675-.675m-8.392-11.135a5.319,5.319,0,0,1,5.313,5.313,5.319,5.319,0,0,1-5.313,5.313,5.319,5.319,0,0,1-5.313-5.313,5.319,5.319,0,0,1,5.313-5.313m-3.174,11.135h-.7c-.019-.154-.017-.314-.047-.464a6.764,6.764,0,0,0,.749.464m-6.891-4.446a5.3,5.3,0,0,1,4.839,4.446,5.3,5.3,0,0,1,.084.832c0,.178-.035.345-.052.519a5.288,5.288,0,0,1-2.506,4,5.278,5.278,0,0,1-1.35.58,5.837,5.837,0,0,1-1.013.18c-.13.012-.258.032-.391.032a5.227,5.227,0,0,1-.96-.1c-.016,0-.032,0-.048,0a5.234,5.234,0,0,1-1.35-.474,5.292,5.292,0,0,1-2.9-4.218c-.017-.173-.052-.341-.052-.519a5.233,5.233,0,0,1,.084-.832A5.318,5.318,0,0,1-67.5-20.415a5.272,5.272,0,0,1,.96-.088c.134,0,.259.026.391.035m-10.466,3.936a5.319,5.319,0,0,1-5.313-5.313c0-.149.031-.288.044-.434a5.255,5.255,0,0,1,.287-1.35,5.3,5.3,0,0,1,4.983-3.529,5.305,5.305,0,0,1,4.983,3.529,5.255,5.255,0,0,1,.286,1.35c.012.145.044.285.044.434a5.319,5.319,0,0,1-5.313,5.313m3.515.324c-.009.06-.011.124-.019.185h-.322c.113-.062.231-.117.341-.185m5.6-5.573a6.691,6.691,0,0,0-2.555.954,6.594,6.594,0,0,0,.1-1.017c0-.149-.034-.288-.044-.434h2.5ZM-93.264-3.666h-19.294l.1-19.81,9.616-12.968,9.678,13.7Zm-8.261-33.253h23.818l10.145,13.292h-2.66a6.653,6.653,0,0,0-6.39-4.879A6.654,6.654,0,0,0-83-23.628h-9.134Zm15.86,21.573v11.68h-6.248l.1-18.611h8.582c-.009.146-.044.285-.044.434a6.642,6.642,0,0,0,3.489,5.822h-5.2a.674.674,0,0,0-.675.675M-75.59-8.692v8.01h-8.726V-14.671h11.167a6.63,6.63,0,0,0,3.437,5.3h-5.2a.675.675,0,0,0-.675.675m16.77,8.01V5.971h-15.42V-8.017h15.42Zm10.456,0h-9.105v-8.01a.675.675,0,0,0-.676-.675h-5.219a6.63,6.63,0,0,0,3.437-5.3h11.563Z" transform="translate(113.912 38.27)" fill="#7f6677"/></g></g></g></g><g transform="translate(0 -6)"><text transform="translate(596 4354)" fill="#7f6677" font-size="80" font-family="Montserrat-ExtraBoldItalic, Montserrat" font-weight="800" font-style="italic" letter-spacing="-0.02em"><tspan x="0" y="77">5000</tspan></text><text transform="translate(596 4305)" fill="#7f6677" font-size="25" font-family="Montserrat-ExtraBoldItalic, Montserrat" font-weight="800" font-style="italic"><tspan x="0" y="24">Terrains étudiés </tspan><tspan x="0" y="54">depuis 2012</tspan></text><g transform="translate(805 4382.35)"><g transform="translate(0 -69.187)" clip-path="url(#d)"><g transform="translate(0 0)"><path d="M-41.353-19.066l-9.061-5.189,6.287-7.576a.808.808,0,0,0,.109-.858.807.807,0,0,0-.73-.464H-56.365a8.9,8.9,0,0,0-3-2.862,8.954,8.954,0,0,0-2.7-.977v-8.173a.811.811,0,0,0-.166-.49L-73.6-60.551a.808.808,0,0,0-.642-.317h-27.432c-.022,0-.041.013-.062.014a.784.784,0,0,0-.223.054.775.775,0,0,0-.117.052.565.565,0,0,0-.063.028.768.768,0,0,0-.113.119c-.021.023-.052.034-.07.059l-11.1,14.973a.809.809,0,0,0-.158.476l-.061,12.012a.79.79,0,0,0-.211.124l-17.882,15.434a.807.807,0,0,0-.229.892.806.806,0,0,0,.756.526h73.654a.809.809,0,0,0,.621-.291l2.334-2.813,10.038,5.749a.8.8,0,0,0,.4.107.817.817,0,0,0,.212-.028.81.81,0,0,0,.489-.378l2.409-4.206a.806.806,0,0,0-.3-1.1m-5.114-12.473-5.369,6.469-3.128-1.791a8.95,8.95,0,0,0-.2-3.714,9.04,9.04,0,0,0-.365-.964Zm-13.7-3.077A7.347,7.347,0,0,1-58.4-33.153a7.258,7.258,0,0,1,1.145,1.614,7.408,7.408,0,0,1,.534,1.389,7.328,7.328,0,0,1-.718,5.6A7.326,7.326,0,0,1-61.9-21.1a7.312,7.312,0,0,1-5.6-.718c-.073-.041-.131-.1-.2-.143a7.36,7.36,0,0,1-1.848-1.614,7.339,7.339,0,0,1-1.4-2.708,7.3,7.3,0,0,1,.562-5.253c.058-.113.091-.233.155-.343a7.436,7.436,0,0,1,.931-1.271,7.327,7.327,0,0,1,3.533-2.18,7.389,7.389,0,0,1,1.944-.262c.047,0,.095.008.142.01a7.23,7.23,0,0,1,1.614.213,7.389,7.389,0,0,1,1.9.756m-3.51-2.549a8.929,8.929,0,0,0-2.509.275A8.9,8.9,0,0,0-71.3-33.153c-.106.161-.237.3-.334.47a9,9,0,0,0-.514,1.144,8.9,8.9,0,0,0-.359,5.677,8.947,8.947,0,0,0,1.021,2.284H-89.831l.043-7.961.008-1.614.055-10.323h26.047Zm-10.962-22.09L-63.83-45.09H-90.111l-10-14.164ZM-111.972-44.82l10.282-13.866L-91.337-44.03l-.058,10.877-.009,1.614-.042,7.961H-112.08l.041-7.961.008-1.614Zm8.182,22.592a.8.8,0,0,0-.223.053.787.787,0,0,0-.118.053.787.787,0,0,1,.118-.053.8.8,0,0,1,.223-.053m45.854,4.51h-71.1L-113.656-31l-.042,8.221a.807.807,0,0,0,.235.573.805.805,0,0,0,.572.238h42.658A8.934,8.934,0,0,0-68.3-20.422a8.931,8.931,0,0,0,4.452,1.194,9.031,9.031,0,0,0,2.37-.319,8.929,8.929,0,0,0,3.3-1.709l2.151,1.233Zm13.474,2.457-9.093-5.208-1.422-.815-1.861-1.065,1.608-2.805,2.349,1.345,1.422.814,8.605,4.928Z" transform="translate(132.018 60.868)" fill="#7f6677"/></g><g transform="translate(27.887 38.64)"><path d="M-.054-.024A.814.814,0,0,0-.172.028M.169-.077a.8.8,0,0,0-.223.053" transform="translate(0.172 0.077)" fill="#7f6677"/></g></g></g></g></g></svg>