<svg xmlns="http://www.w3.org/2000/svg" width="24.892" height="32.827" viewBox="0 0 24.892 32.827"><g transform="translate(0.5 0.5)"><path d="M0,0-10.308-3.848a1.089,1.089,0,0,0-.833.03,1.091,1.091,0,0,0-.568.61l-1.419,3.8-.285-.109-7.376-11.745,3.8.358c.033,0,.067,0,.1,0a1.012,1.012,0,0,0,.674-.27,1.177,1.177,0,0,0,.373-.782l.885-11.251a1.13,1.13,0,0,0-.968-1.246l-4.973-.468c-.007,0-.013,0-.02,0l0,0a1.069,1.069,0,0,0-1.147.969L-23.129-11.4a1.059,1.059,0,0,0,.159.653l7.948,12.657a1.054,1.054,0,0,0,.52.427l1.55.592a.946.946,0,0,0,.092.057l2.493.931,7.63,2.915a1.046,1.046,0,0,0,.378.071,1.138,1.138,0,0,0,.117-.018c.035,0,.069.018.1.017a1.079,1.079,0,0,0,.419-.1,1.091,1.091,0,0,0,.568-.61L.64,1.4A1.09,1.09,0,0,0,0,0M-17.865-13.3l-2.859-.268.705-8.959,2.859.269Zm7.816,11.869L-1.782,1.66-2.811,4.417-11.078,1.33Z" transform="translate(23.133 24.919)" fill="#fff" stroke="#fff" stroke-linejoin="round" stroke-width="1"/></g></svg>