<svg xmlns="http://www.w3.org/2000/svg" width="38.717" height="29.741" viewBox="0 0 38.717 29.741"><path d="M1513.769,2206.052a1.192,1.192,0,0,0-.145-.4c-.017-.028-.013-.059-.03-.083l-8.088-11.294a1.174,1.174,0,0,0-.959-.491h-20.193l-.014,0a1.174,1.174,0,0,0-.581.165.864.864,0,0,0-.127.11,1.1,1.1,0,0,0-.255.219l-7.977,11.177a1.169,1.169,0,0,0-.31.794v16.092a1.183,1.183,0,0,0,1.183,1.183h16.137l.007,0,.01,0h20.2a1.182,1.182,0,0,0,1.179-1.183v-16.092c0-.01,0-.02,0-.03A1.368,1.368,0,0,0,1513.769,2206.052Zm-9.828-9.908,6.388,8.923h-17.309l-6.382-8.923h17.3m-26.488,25.015v-14.52l6.886-9.646,6.887,9.633v14.533Zm33.99,0h-17.836v-13.729h17.836Z" transform="translate(-1475.089 -2193.781)" fill="#fff"/></svg>