<svg xmlns="http://www.w3.org/2000/svg" width="199.784" height="55.551" viewBox="0 0 199.784 55.551"><g transform="translate(89.356 43.106)"><path d="M250.424,140.245a2.869,2.869,0,0,1,2.9-2.953,2.812,2.812,0,0,1,2.218.9l-.7.631a1.989,1.989,0,0,0-1.519-.631,2.054,2.054,0,0,0,0,4.079,2.148,2.148,0,0,0,1.656-.7l.7.615a2.9,2.9,0,0,1-2.355.99A2.865,2.865,0,0,1,250.424,140.245Z" transform="translate(-250.424 -130.926)" fill="#fff"/><path d="M264.474,140.245a2.979,2.979,0,1,1,2.986,2.936A2.919,2.919,0,0,1,264.474,140.245Zm4.881,0a1.9,1.9,0,1,0-1.895,2.048A1.915,1.915,0,0,0,269.355,140.245Z" transform="translate(-257.544 -130.926)" fill="#fff"/><path d="M281.084,137.429h1.041v.768a1.942,1.942,0,0,1,3.362.137,2.156,2.156,0,0,1,1.98-1.041,1.974,1.974,0,0,1,2.031,2.168v3.584h-1.041v-3.465c0-.888-.41-1.348-1.2-1.348a1.36,1.36,0,0,0-1.451,1.553v3.26h-1.041V139.6c0-.888-.393-1.366-1.2-1.366-.922,0-1.451.563-1.451,1.588v3.226h-1.041Z" transform="translate(-265.962 -130.926)" fill="#fff"/><path d="M303.231,137.429h1.041v.768a1.942,1.942,0,0,1,3.363.137,2.155,2.155,0,0,1,1.98-1.041,1.974,1.974,0,0,1,2.031,2.168v3.584H310.6v-3.465c0-.888-.409-1.348-1.195-1.348a1.361,1.361,0,0,0-1.451,1.553v3.26h-1.041V139.6c0-.888-.393-1.366-1.195-1.366-.922,0-1.451.563-1.451,1.588v3.226h-1.041Z" transform="translate(-277.186 -130.926)" fill="#fff"/><path d="M327.707,142.293a2.153,2.153,0,0,0,1.758-.734l.649.632a2.928,2.928,0,0,1-2.39.99,2.946,2.946,0,1,1-.119-5.888c1.792,0,2.885,1.4,2.85,3.328h-4.711A1.844,1.844,0,0,0,327.707,142.293Zm1.655-2.543a1.69,1.69,0,0,0-1.758-1.57,1.784,1.784,0,0,0-1.826,1.57Z" transform="translate(-288.042 -130.926)" fill="#fff"/><path d="M340.952,137.429h1.041v.939a1.8,1.8,0,0,1,1.638-1.075,1.554,1.554,0,0,1,.887.222l-.359.887a1.373,1.373,0,0,0-.7-.153c-.837,0-1.468.683-1.468,1.826v2.97h-1.041Z" transform="translate(-296.303 -130.926)" fill="#fff"/><path d="M351.022,140.245a2.869,2.869,0,0,1,2.9-2.953,2.812,2.812,0,0,1,2.218.9l-.7.631a1.989,1.989,0,0,0-1.519-.631,2.054,2.054,0,0,0,0,4.079,2.149,2.149,0,0,0,1.656-.7l.7.615a2.9,2.9,0,0,1-2.355.99A2.864,2.864,0,0,1,351.022,140.245Z" transform="translate(-301.406 -130.926)" fill="#fff"/><path d="M365.659,131.226a.717.717,0,1,1,.717.717A.721.721,0,0,1,365.659,131.226Zm.188,2.765h1.058v5.615h-1.058Z" transform="translate(-308.824 -127.488)" fill="#fff"/><path d="M376.714,139.6c0-1.041-.512-1.417-1.314-1.417a1.82,1.82,0,0,0-1.588.8l-.666-.581a2.682,2.682,0,0,1,2.288-1.109,2.084,2.084,0,0,1,2.321,2.3v3.448h-1.041v-.631a2.165,2.165,0,0,1-1.758.768c-1.177,0-2.133-.581-2.133-1.809,0-1.144,1.007-1.724,2.2-1.724h1.69Zm-1.621.887c-.683,0-1.229.256-1.229.888s.478.956,1.263.956c.836,0,1.587-.444,1.587-1.229v-.615Z" transform="translate(-312.455 -130.926)" fill="#fff"/><path d="M388.118,124.384h1.058V136.5h-1.058Z" transform="translate(-320.206 -124.384)" fill="#fff"/><path d="M395.315,131.226a.717.717,0,1,1,.717.717A.721.721,0,0,1,395.315,131.226Zm.188,2.765h1.058v5.615H395.5Z" transform="translate(-323.854 -127.488)" fill="#fff"/><path d="M402.168,141.917l.751-.529a1.845,1.845,0,0,0,1.656.9c.717,0,1.127-.29,1.127-.751,0-.5-.393-.7-1.366-.973-1.109-.307-1.775-.734-1.775-1.724,0-.922.734-1.553,1.844-1.553a2.246,2.246,0,0,1,1.928.9l-.7.58a1.413,1.413,0,0,0-1.212-.6c-.563,0-.887.273-.887.632,0,.495.359.631,1.229.853,1.195.307,1.946.8,1.946,1.826,0,1.058-.8,1.69-2.134,1.69A2.749,2.749,0,0,1,402.168,141.917Z" transform="translate(-327.327 -130.926)" fill="#fff"/><path d="M418.932,139.6c0-1.041-.512-1.417-1.314-1.417a1.82,1.82,0,0,0-1.588.8l-.666-.581a2.682,2.682,0,0,1,2.287-1.109,2.084,2.084,0,0,1,2.321,2.3v3.448h-1.041v-.631a2.165,2.165,0,0,1-1.758.768c-1.178,0-2.134-.581-2.134-1.809,0-1.144,1.007-1.724,2.2-1.724h1.69Zm-1.621.887c-.683,0-1.229.256-1.229.888s.478.956,1.263.956c.836,0,1.587-.444,1.587-1.229v-.615Z" transform="translate(-333.851 -130.926)" fill="#fff"/><path d="M429.367,134.861v-.887h.734v-3.5h1.041v3.5h1.4v.887h-1.4v3.209c0,.512.187.751.6.751a1,1,0,0,0,.614-.239l.444.734a1.715,1.715,0,0,1-1.178.41,1.4,1.4,0,0,1-1.519-1.6v-3.26Z" transform="translate(-341.111 -127.471)" fill="#fff"/><path d="M440.2,131.226a.717.717,0,1,1,.717.717A.721.721,0,0,1,440.2,131.226Zm.188,2.765h1.058v5.615h-1.058Z" transform="translate(-346.601 -127.488)" fill="#fff"/><path d="M447.327,140.245a2.979,2.979,0,1,1,2.987,2.936A2.919,2.919,0,0,1,447.327,140.245Zm4.882,0a1.9,1.9,0,1,0-1.895,2.048A1.914,1.914,0,0,0,452.209,140.245Z" transform="translate(-350.213 -130.926)" fill="#fff"/><path d="M463.938,137.429h1.041v.9a2.207,2.207,0,0,1,4.079,1.263v3.448h-1.041V139.7c0-.99-.478-1.468-1.365-1.468a1.569,1.569,0,0,0-1.673,1.707v3.106h-1.041Z" transform="translate(-358.631 -130.926)" fill="#fff"/></g><g transform="translate(76.337 46.815)"><path d="M229.135,137.82a5.841,5.841,0,0,0,.338-2.077h.724a6.1,6.1,0,0,1-.555,2.693l1.437,1.775h-.966l-.894-1.1a3.137,3.137,0,0,1-2.524,1.2,2.377,2.377,0,0,1-2.669-2.282c0-1.365.978-2.017,2.126-2.681l-.145-.182a2.475,2.475,0,0,1-.652-1.606,1.631,1.631,0,0,1,1.727-1.654,1.556,1.556,0,0,1,1.642,1.63c0,.8-.6,1.4-1.485,1.944Zm-2.56-1.957c-1.026.58-1.739,1.1-1.739,2.162a1.654,1.654,0,0,0,1.859,1.594,2.394,2.394,0,0,0,2.065-1.075Zm1.4-2.33a.879.879,0,0,0-.894-.954.922.922,0,0,0-.966.978,1.832,1.832,0,0,0,.483,1.147l.217.266C227.505,134.559,227.976,134.161,227.976,133.533Z" transform="translate(-224.027 -131.903)" fill="#fff" stroke="#fff" stroke-miterlimit="10" stroke-width="0.665"/></g><g transform="translate(0 43.154)"><path d="M69.25,137.563H70.4l1.744,3.743,1.66-3.743h1.067l-2.727,5.759h-.068Z" transform="translate(-69.25 -131.11)" fill="#fff"/><path d="M87.293,139.575c0-1.033-.508-1.406-1.3-1.406a1.806,1.806,0,0,0-1.575.8l-.661-.576a2.66,2.66,0,0,1,2.27-1.1,2.068,2.068,0,0,1,2.3,2.286V143H87.293v-.626a2.148,2.148,0,0,1-1.744.762c-1.169,0-2.117-.576-2.117-1.8,0-1.135,1-1.711,2.185-1.711h1.677Zm-1.609.881c-.677,0-1.219.254-1.219.881s.474.948,1.253.948c.83,0,1.575-.44,1.575-1.22v-.61Z" transform="translate(-76.437 -130.972)" fill="#fff"/><path d="M98.61,124.48h1.05V136.5H98.61Z" transform="translate(-84.129 -124.48)" fill="#fff"/><path d="M105.34,140.219a2.956,2.956,0,1,1,2.964,2.913A2.9,2.9,0,0,1,105.34,140.219Zm4.844,0a1.886,1.886,0,1,0-1.88,2.033A1.9,1.9,0,0,0,110.184,140.219Z" transform="translate(-87.54 -130.972)" fill="#fff"/><path d="M121.822,137.424h1.033v.932a1.782,1.782,0,0,1,1.626-1.067,1.545,1.545,0,0,1,.88.22l-.356.881a1.362,1.362,0,0,0-.694-.152c-.83,0-1.457.677-1.457,1.812V143h-1.033Z" transform="translate(-95.893 -130.972)" fill="#fff"/><path d="M132.57,131.269a.711.711,0,1,1,.711.711A.715.715,0,0,1,132.57,131.269Zm.186,2.744h1.05v5.572h-1.05Z" transform="translate(-101.34 -127.56)" fill="#fff"/><path d="M139.369,141.878l.745-.525a1.832,1.832,0,0,0,1.643.9c.711,0,1.118-.288,1.118-.745,0-.491-.39-.694-1.355-.965-1.1-.3-1.761-.728-1.761-1.71,0-.915.728-1.541,1.829-1.541a2.23,2.23,0,0,1,1.914.9l-.694.576a1.4,1.4,0,0,0-1.2-.593c-.559,0-.88.271-.88.627,0,.491.356.626,1.219.847,1.185.3,1.931.8,1.931,1.812,0,1.05-.8,1.677-2.117,1.677A2.728,2.728,0,0,1,139.369,141.878Z" transform="translate(-104.786 -130.972)" fill="#fff"/><path d="M156.005,139.575c0-1.033-.508-1.406-1.3-1.406a1.806,1.806,0,0,0-1.575.8l-.661-.576a2.66,2.66,0,0,1,2.27-1.1,2.067,2.067,0,0,1,2.3,2.286V143h-1.033v-.626a2.148,2.148,0,0,1-1.744.762c-1.169,0-2.117-.576-2.117-1.8,0-1.135,1-1.711,2.185-1.711h1.676Zm-1.609.881c-.677,0-1.219.254-1.219.881s.474.948,1.253.948c.83,0,1.575-.44,1.575-1.22v-.61Z" transform="translate(-111.26 -130.972)" fill="#fff"/><path d="M166.359,134.877V134h.728v-3.472h1.033V134h1.389v.881h-1.389v3.184c0,.508.186.745.593.745a.994.994,0,0,0,.61-.237l.44.728a1.705,1.705,0,0,1-1.169.406,1.392,1.392,0,0,1-1.507-1.592v-3.235Z" transform="translate(-118.464 -127.543)" fill="#fff"/><path d="M177.107,131.269a.711.711,0,1,1,.712.711A.716.716,0,0,1,177.107,131.269Zm.186,2.744h1.05v5.572h-1.05Z" transform="translate(-123.911 -127.56)" fill="#fff"/><path d="M184.182,140.219a2.956,2.956,0,1,1,2.964,2.913A2.9,2.9,0,0,1,184.182,140.219Zm4.843,0a1.886,1.886,0,1,0-1.88,2.033A1.9,1.9,0,0,0,189.025,140.219Z" transform="translate(-127.497 -130.972)" fill="#fff"/><path d="M200.664,137.424H201.7v.9a2.19,2.19,0,0,1,4.048,1.253V143h-1.033v-3.32c0-.982-.474-1.456-1.355-1.456a1.557,1.557,0,0,0-1.66,1.694V143h-1.033Z" transform="translate(-135.85 -130.972)" fill="#fff"/></g><g transform="translate(0 0.972)"><g transform="translate(0 0.287)"><path d="M69.25,39.536h6.695V72.054H69.25Z" transform="translate(-69.25 -39.536)" fill="#fff"/></g><g transform="translate(14.537)"><path d="M108.383,56.648A48.323,48.323,0,0,1,104.51,52.2a57.22,57.22,0,0,1,.478,5.93V71.759H98.724v-32.8h.669l16.4,15.4a46.088,46.088,0,0,1,3.825,4.447s-.43-3.682-.43-5.929V39.242h6.264v32.8h-.669Z" transform="translate(-98.724 -38.955)" fill="#fff"/></g><g transform="translate(82.967 0.287)"><path d="M237.469,39.536h7.173l5.594,12.529a67.681,67.681,0,0,1,2.535,7.364,66.746,66.746,0,0,1,2.487-7.364l5.451-12.529h6.5l-14.251,32.8h-.669Z" transform="translate(-237.469 -39.536)" fill="#fff"/></g><g transform="translate(118.067 0.287)"><path d="M308.636,39.536h21.519v5.882H315.33V55.747h13.055v5.738H315.33v4.686h15.494v5.882H308.636Z" transform="translate(-308.636 -39.536)" fill="#fff"/></g><g transform="translate(147.429 0.287)"><path d="M368.168,39.536h20.944v5.882h-14.25v10.76h12.959v5.977H374.862v9.9h-6.694Z" transform="translate(-368.168 -39.536)" fill="#fff"/></g><g transform="translate(169.952)"><path d="M428.133,38.955h.574l14.873,32.8h-7.03l-1.529-3.682h-13.2l-1.53,3.682h-6.456Zm4.5,23.527-2.343-5.643c-.957-2.3-1.961-5.834-1.961-5.834a59.053,59.053,0,0,1-1.913,5.834l-2.343,5.643Z" transform="translate(-413.835 -38.955)" fill="#fff"/></g></g><g transform="translate(47.68)"><path d="M184.4,57.551l-3.951,5.536v8.335h7.906V63.08l-.289-.4Z" transform="translate(-173.286 -47.407)" fill="#fff"/><path d="M182.9,36.984c-9.6,0-16.973,7.566-16.973,17.456S173.3,71.9,182.9,71.9s16.971-7.563,16.971-17.459S192.5,36.984,182.9,36.984Zm11.058,24.693a.678.678,0,0,1-.678.678H172.41a.678.678,0,0,1-.679-.678V52.439a.679.679,0,0,1,.175-.454l4.581-6.418a.588.588,0,0,1,.04-.044.411.411,0,0,1,.034-.037.613.613,0,0,1,.106-.086l.029-.02a.682.682,0,0,1,.152-.066l.007,0a.672.672,0,0,1,.183-.028h0l.019,0H188.6a.667.667,0,0,1,.594.281l4.64,6.484,0,.006a.688.688,0,0,1,.07.134.642.642,0,0,1,.025.081c0,.02.009.039.013.06a.663.663,0,0,1,.01.109Z" transform="translate(-165.924 -36.984)" fill="#fff"/><path d="M201.072,56.563h-9.935l3.661,5.12h9.938Z" transform="translate(-178.702 -46.907)" fill="#fff"/><rect width="10.238" height="7.882" transform="translate(16.437 16.133)" fill="#fff"/></g></svg>