<svg xmlns="http://www.w3.org/2000/svg" width="245.691" height="133.427" viewBox="0 0 245.691 133.427"><g transform="translate(-630.365 366.327)"><g transform="translate(729.854 -256.807)"><g transform="translate(0 3.188)"><path d="M696.521-291.486v3.42c0,3.013-1.54,4.549-3.692,4.549a3.38,3.38,0,0,1-2.808-1.382l-.181,1.113h-1.087v-16.4h1.314v5.572a3.342,3.342,0,0,1,2.762-1.338C695.115-295.947,696.521-294.429,696.521-291.486Zm-1.36,0c0-2.265-.884-3.217-2.627-3.217-1.494,0-2.467,1.314-2.467,3.217v3.464c0,2.22,1.109,3.26,2.467,3.26,1.655,0,2.627-.971,2.627-3.3Z" transform="translate(-688.753 300.181)" fill="#abd3ce"/><path d="M702.249-297.538,698.242-284.2c-.521,1.765-1.2,2.875-2.832,2.875h-.77v-1.314h.59c1.043,0,1.382-.791,1.675-1.767l.748-2.443-3.8-10.692h1.428l2.967,8.676,2.6-8.676Z" transform="translate(-685.167 302.041)" fill="#abd3ce"/></g><g transform="translate(30.421)"><rect width="3.879" height="18.846" transform="translate(0 0.733)" fill="#abd3ce"/><path d="M717.152-291.461a28.83,28.83,0,0,1-2.246-2.581,33.106,33.106,0,0,1,.278,3.44v7.894h-3.631v-19.009h.389l9.508,8.92a27.011,27.011,0,0,1,2.22,2.581s-.252-2.137-.252-3.437v-7.9h3.633v19.016h-.385Z" transform="translate(-703.125 302.288)" fill="#abd3ce"/><path d="M734.838-301.622H739l3.244,7.264a39.253,39.253,0,0,1,1.467,4.272,38.505,38.505,0,0,1,1.445-4.272l3.159-7.264h3.769l-8.259,19.016h-.388Z" transform="translate(-686.734 302.355)" fill="#abd3ce"/><path d="M746.781-301.622h12.477v3.4h-8.594v6h7.568v3.328h-7.568v2.717h8.979v3.4H746.781Z" transform="translate(-678.327 302.355)" fill="#abd3ce"/><path d="M756.772-301.622h12.144v3.4h-8.262v6.243h7.511v3.461h-7.511v5.737h-3.882Z" transform="translate(-671.294 302.355)" fill="#abd3ce"/><path d="M772.726-301.717h.332l8.622,19.009h-4.074l-.889-2.128h-7.651l-.886,2.128h-3.745Zm2.607,13.633-1.361-3.268c-.554-1.334-1.135-3.389-1.135-3.389a34.637,34.637,0,0,1-1.109,3.389l-1.36,3.268Z" transform="translate(-665.9 302.288)" fill="#abd3ce"/><path d="M727.557-298.6l-2.288,3.211v4.834h4.584v-4.837l-.17-.238Z" transform="translate(-693.47 304.482)" fill="#abd3ce"/><path d="M732.669-302.052a9.813,9.813,0,0,0-9.838,10.121,9.807,9.807,0,0,0,9.838,10.12,9.808,9.808,0,0,0,9.842-10.12,9.814,9.814,0,0,0-9.842-10.121m6.412,14.32a.392.392,0,0,1-.39.394h-12.1a.391.391,0,0,1-.389-.394v-5.355a.389.389,0,0,1,.1-.264l2.656-3.723c.007-.01.019-.015.026-.024l.019-.024a.594.594,0,0,1,.061-.048l.017-.012a.5.5,0,0,1,.087-.037l.005,0a.277.277,0,0,1,.1-.017h6.707a.383.383,0,0,1,.343.164l2.689,3.762h.005a.5.5,0,0,1,.041.08l.014.044a.19.19,0,0,0,.009.036c0,.021,0,.041,0,.065Z" transform="translate(-695.186 302.052)" fill="#abd3ce"/><path d="M732.82-298.765h-5.758l2.12,2.967h5.761Z" transform="translate(-692.208 304.366)" fill="#abd3ce"/><rect width="5.932" height="4.573" transform="translate(37.177 9.354)" fill="#abd3ce"/></g></g><g transform="translate(630.365 -366.327)"><path d="M703.844-349.587H690.91v52.06h12.934q25.554,0,25.554-26.082Q729.4-349.582,703.844-349.587Z" transform="translate(-587.746 378.111)" fill="#abd3ce"/><path d="M630.365-366.327v102.5H875.654v-102.5ZM700.4-317.719a7.32,7.32,0,0,1,4.733,1.372,4.848,4.848,0,0,1,1.682,3.994,4.731,4.731,0,0,1-1.682,3.893A7.319,7.319,0,0,1,700.4-307.1h-29.13v21.665h31.235a7.108,7.108,0,0,1,4.73,1.421,4.992,4.992,0,0,1,1.689,4.047,4.727,4.727,0,0,1-1.689,3.893,7.329,7.329,0,0,1-4.73,1.365H664.544a6.572,6.572,0,0,1-4.786-1.685,6.264,6.264,0,0,1-1.735-4.728v-61.311a6.279,6.279,0,0,1,1.735-4.734,6.584,6.584,0,0,1,4.786-1.68h37.962a7.319,7.319,0,0,1,4.73,1.365,4.727,4.727,0,0,1,1.689,3.893,5.009,5.009,0,0,1-1.689,4.05,7.135,7.135,0,0,1-4.73,1.418H671.271v20.4Zm75.14,33.288Q765.5-274.7,747.3-274.7H726.482a6.566,6.566,0,0,1-4.783-1.685,6.265,6.265,0,0,1-1.736-4.728v-61.311a6.28,6.28,0,0,1,1.736-4.734,6.578,6.578,0,0,1,4.783-1.68H747.3q18.193,0,28.237,9.724t10.043,27.292Q785.584-294.161,775.541-284.431Zm13.686-48.722a1.7,1.7,0,0,1-.305-2.389,1.707,1.707,0,0,1,2.391-.307l8.416,6.506a9.545,9.545,0,0,0-2.091,2.692Zm23.594,52.246a6.8,6.8,0,0,1-1.84,4.945,6.65,6.65,0,0,1-4.994,1.888,6.5,6.5,0,0,1-4.89-1.888,6.793,6.793,0,0,1-1.84-4.945v-22.909a6.605,6.605,0,0,1,1.84-4.892,6.59,6.59,0,0,1,4.89-1.84,6.741,6.741,0,0,1,4.994,1.84,6.611,6.611,0,0,1,1.84,4.892ZM806.04-314.55a7.762,7.762,0,0,1-7.761-7.761,7.682,7.682,0,0,1,1.634-4.711l.041-.049a7.625,7.625,0,0,1,1.166-1.191l0,0h0a7.693,7.693,0,0,1,4.919-1.8,7.72,7.72,0,0,1,5.33,2.144h0l0,0a7.732,7.732,0,0,1,1.89,2.832h0a7.693,7.693,0,0,1,.535,2.779A7.76,7.76,0,0,1,806.04-314.55Zm8.681-11.515a9.467,9.467,0,0,0-1.9-2.828L826.6-338.1a9.465,9.465,0,0,0,1.641,3Zm27.651,45.157a6.8,6.8,0,0,1-1.84,4.945,6.657,6.657,0,0,1-5,1.888,6.5,6.5,0,0,1-4.889-1.888,6.8,6.8,0,0,1-1.84-4.945V-322.56a6.612,6.612,0,0,1,1.84-4.892,6.589,6.589,0,0,1,4.889-1.84,6.749,6.749,0,0,1,5,1.84,6.613,6.613,0,0,1,1.84,4.892Zm-6.782-52.385a7.733,7.733,0,0,1-6.839-4.164l-.027-.053a7.576,7.576,0,0,1-.617-1.595h0a7.67,7.67,0,0,1-.278-1.949,7.76,7.76,0,0,1,7.761-7.758,7.692,7.692,0,0,1,4.66,1.591h0l0,0a7.8,7.8,0,0,1,1.222,1.162l.046.055a7.689,7.689,0,0,1,1.828,4.948A7.761,7.761,0,0,1,835.591-333.293Zm24.647-23.185-16.332,10.914a9.539,9.539,0,0,0-2.155-2.658l16.594-11.087a1.7,1.7,0,0,1,2.363.47A1.7,1.7,0,0,1,860.239-356.478Z" transform="translate(-630.365 366.327)" fill="#abd3ce"/></g></g></svg>