<svg xmlns="http://www.w3.org/2000/svg" xmlns:xlink="http://www.w3.org/1999/xlink" width="91.071" height="47.515" viewBox="0 0 91.071 47.515"><defs><clipPath id="a"><path d="M0-21.672H91.071V-69.187H0Z" transform="translate(0 69.187)" fill="#7f6677"/></clipPath></defs><g transform="translate(0 69.187)"><g transform="translate(0 -69.187)" clip-path="url(#a)"><g transform="translate(0 0)"><path d="M-41.353-19.066l-9.061-5.189,6.287-7.576a.808.808,0,0,0,.109-.858.807.807,0,0,0-.73-.464H-56.365a8.9,8.9,0,0,0-3-2.862,8.954,8.954,0,0,0-2.7-.977v-8.173a.811.811,0,0,0-.166-.49L-73.6-60.551a.808.808,0,0,0-.642-.317h-27.432c-.022,0-.041.013-.062.014a.784.784,0,0,0-.223.054.775.775,0,0,0-.117.052.565.565,0,0,0-.063.028.768.768,0,0,0-.113.119c-.021.023-.052.034-.07.059l-11.1,14.973a.809.809,0,0,0-.158.476l-.061,12.012a.79.79,0,0,0-.211.124l-17.882,15.434a.807.807,0,0,0-.229.892.806.806,0,0,0,.756.526h73.654a.809.809,0,0,0,.621-.291l2.334-2.813,10.038,5.749a.8.8,0,0,0,.4.107.817.817,0,0,0,.212-.028.81.81,0,0,0,.489-.378l2.409-4.206a.806.806,0,0,0-.3-1.1m-5.114-12.473-5.369,6.469-3.128-1.791a8.95,8.95,0,0,0-.2-3.714,9.04,9.04,0,0,0-.365-.964Zm-13.7-3.077A7.347,7.347,0,0,1-58.4-33.153a7.258,7.258,0,0,1,1.145,1.614,7.408,7.408,0,0,1,.534,1.389,7.328,7.328,0,0,1-.718,5.6A7.326,7.326,0,0,1-61.9-21.1a7.312,7.312,0,0,1-5.6-.718c-.073-.041-.131-.1-.2-.143a7.36,7.36,0,0,1-1.848-1.614,7.339,7.339,0,0,1-1.4-2.708,7.3,7.3,0,0,1,.562-5.253c.058-.113.091-.233.155-.343a7.436,7.436,0,0,1,.931-1.271,7.327,7.327,0,0,1,3.533-2.18,7.389,7.389,0,0,1,1.944-.262c.047,0,.095.008.142.01a7.23,7.23,0,0,1,1.614.213,7.389,7.389,0,0,1,1.9.756m-3.51-2.549a8.929,8.929,0,0,0-2.509.275A8.9,8.9,0,0,0-71.3-33.153c-.106.161-.237.3-.334.47a9,9,0,0,0-.514,1.144,8.9,8.9,0,0,0-.359,5.677,8.947,8.947,0,0,0,1.021,2.284H-89.831l.043-7.961.008-1.614.055-10.323h26.047Zm-10.962-22.09L-63.83-45.09H-90.111l-10-14.164ZM-111.972-44.82l10.282-13.866L-91.337-44.03l-.058,10.877-.009,1.614-.042,7.961H-112.08l.041-7.961.008-1.614Zm8.182,22.592a.8.8,0,0,0-.223.053.787.787,0,0,0-.118.053.787.787,0,0,1,.118-.053.8.8,0,0,1,.223-.053m45.854,4.51h-71.1L-113.656-31l-.042,8.221a.807.807,0,0,0,.235.573.805.805,0,0,0,.572.238h42.658A8.934,8.934,0,0,0-68.3-20.422a8.931,8.931,0,0,0,4.452,1.194,9.031,9.031,0,0,0,2.37-.319,8.929,8.929,0,0,0,3.3-1.709l2.151,1.233Zm13.474,2.457-9.093-5.208-1.422-.815-1.861-1.065,1.608-2.805,2.349,1.345,1.422.814,8.605,4.928Z" transform="translate(132.018 60.868)" fill="#7f6677"/></g><g transform="translate(27.887 38.64)"><path d="M-.054-.024A.814.814,0,0,0-.172.028M.169-.077a.8.8,0,0,0-.223.053" transform="translate(0.172 0.077)" fill="#7f6677"/></g></g></g></svg>