<svg xmlns="http://www.w3.org/2000/svg" xmlns:xlink="http://www.w3.org/1999/xlink" width="60.855" height="43.852" viewBox="0 0 60.855 43.852"><defs><clipPath id="a"><path d="M0-22.108H60.855V-65.96H0Z" transform="translate(0 65.96)" fill="#7f6677"/></clipPath></defs><g transform="translate(0 65.96)"><g transform="translate(0 -65.96)" clip-path="url(#a)"><g transform="translate(0 0)"><path d="M-30.6-7.868-42.29-23.182a.748.748,0,0,0-.6-.293h-28.2c-.021,0-.038.012-.059.013a.732.732,0,0,0-.207.049.751.751,0,0,0-.108.049c-.019.011-.041.013-.059.026a.711.711,0,0,0-.1.11c-.019.021-.047.031-.065.055L-83.1-7.783a.744.744,0,0,0-.147.441l-.08,15.512-7.762,7.763a.747.747,0,0,0,0,1.058l3.167,3.167a.75.75,0,0,0,.529.219.75.75,0,0,0,.529-.219l3.9-3.9a.744.744,0,0,0,.346.1H-31.2a.748.748,0,0,0,.748-.748V-7.414a.756.756,0,0,0-.154-.454M-43.255-21.979-32.017-7.256H-59.24l-10.4-14.723Zm-40.1,36.516-4.034,4.034-2.11-2.109,6.165-6.166,1.5-1.5,1.647-1.648,2.11,2.11-3.779,3.779Zm3.29-12.21A6.769,6.769,0,0,1-78.07-2.49,6.788,6.788,0,0,1-73.254-4.48,6.8,6.8,0,0,1-68.438-2.49a6.772,6.772,0,0,1,1.994,4.817,6.766,6.766,0,0,1-1.994,4.815,6.764,6.764,0,0,1-4.816,2,6.764,6.764,0,0,1-4.815-2,6.763,6.763,0,0,1-1.994-4.815m3.452,7.582a8.256,8.256,0,0,0,3.358.723A8.253,8.253,0,0,0-67.381,8.2a8.252,8.252,0,0,0,2.433-5.872,8.253,8.253,0,0,0-2.433-5.874,8.317,8.317,0,0,0-11.747,0A8.25,8.25,0,0,0-81.56,2.327a8.263,8.263,0,0,0,.723,3.357l-.981.982.07-13.756L-71.1-21.453-60.375-6.273l-.112,21.128h-21.07Zm44.668,4.946H-58.992l.11-20.615h26.938Z" transform="translate(91.304 23.475)" fill="#7f6677"/></g></g></g></svg>