<svg xmlns="http://www.w3.org/2000/svg" xmlns:xlink="http://www.w3.org/1999/xlink" width="66.898" height="45.591" viewBox="0 0 66.898 45.591"><defs><clipPath id="a"><path d="M0-32.831H66.9V-78.422H0Z" transform="translate(0 78.422)" fill="#7f6677"/></clipPath></defs><g transform="translate(0 78.422)"><g transform="translate(0 -78.422)" clip-path="url(#a)"><g transform="translate(0 0)"><path d="M-47.688-16.021h-5.218a6.643,6.643,0,0,0,3.489-5.822,6.671,6.671,0,0,0-6.664-6.664,6.671,6.671,0,0,0-6.664,6.664,6.661,6.661,0,0,0,.131,1.3,6.624,6.624,0,0,0-3.533-1.273v-1.95a.68.68,0,0,0-.138-.41L-76.837-38a.675.675,0,0,0-.537-.265h-25.455a.528.528,0,0,0-.052.013.678.678,0,0,0-.187.044.645.645,0,0,0-.1.044.531.531,0,0,0-.052.023.609.609,0,0,0-.094.1c-.018.019-.044.028-.059.049l-10.3,13.894a.679.679,0,0,0-.133.4l-.106,20.71a.676.676,0,0,0,.2.48.674.674,0,0,0,.479.2h27.571V-.007a.674.674,0,0,0,.675.675h9.4V6.646a.675.675,0,0,0,.675.675h16.77a.675.675,0,0,0,.676-.675V.668h9.78a.674.674,0,0,0,.675-.675v-15.34a.674.674,0,0,0-.675-.675m-8.392-11.135a5.319,5.319,0,0,1,5.313,5.313,5.319,5.319,0,0,1-5.313,5.313,5.319,5.319,0,0,1-5.313-5.313,5.319,5.319,0,0,1,5.313-5.313m-3.174,11.135h-.7c-.019-.154-.017-.314-.047-.464a6.764,6.764,0,0,0,.749.464m-6.891-4.446a5.3,5.3,0,0,1,4.839,4.446,5.3,5.3,0,0,1,.084.832c0,.178-.035.345-.052.519a5.288,5.288,0,0,1-2.506,4,5.278,5.278,0,0,1-1.35.58,5.837,5.837,0,0,1-1.013.18c-.13.012-.258.032-.391.032a5.227,5.227,0,0,1-.96-.1c-.016,0-.032,0-.048,0a5.234,5.234,0,0,1-1.35-.474,5.292,5.292,0,0,1-2.9-4.218c-.017-.173-.052-.341-.052-.519a5.233,5.233,0,0,1,.084-.832A5.318,5.318,0,0,1-67.5-20.415a5.272,5.272,0,0,1,.96-.088c.134,0,.259.026.391.035m-10.466,3.936a5.319,5.319,0,0,1-5.313-5.313c0-.149.031-.288.044-.434a5.255,5.255,0,0,1,.287-1.35,5.3,5.3,0,0,1,4.983-3.529,5.305,5.305,0,0,1,4.983,3.529,5.255,5.255,0,0,1,.286,1.35c.012.145.044.285.044.434a5.319,5.319,0,0,1-5.313,5.313m3.515.324c-.009.06-.011.124-.019.185h-.322c.113-.062.231-.117.341-.185m5.6-5.573a6.691,6.691,0,0,0-2.555.954,6.594,6.594,0,0,0,.1-1.017c0-.149-.034-.288-.044-.434h2.5ZM-93.264-3.666h-19.294l.1-19.81,9.616-12.968,9.678,13.7Zm-8.261-33.253h23.818l10.145,13.292h-2.66a6.653,6.653,0,0,0-6.39-4.879A6.654,6.654,0,0,0-83-23.628h-9.134Zm15.86,21.573v11.68h-6.248l.1-18.611h8.582c-.009.146-.044.285-.044.434a6.642,6.642,0,0,0,3.489,5.822h-5.2a.674.674,0,0,0-.675.675M-75.59-8.692v8.01h-8.726V-14.671h11.167a6.63,6.63,0,0,0,3.437,5.3h-5.2a.675.675,0,0,0-.675.675m16.77,8.01V5.971h-15.42V-8.017h15.42Zm10.456,0h-9.105v-8.01a.675.675,0,0,0-.676-.675h-5.219a6.63,6.63,0,0,0,3.437-5.3h11.563Z" transform="translate(113.912 38.27)" fill="#7f6677"/></g></g></g></svg>